# xmcd CD database file
#
# Track frame offsets:
#	150
#	8658
#	25112
#	39643
#	50256
#	63163
#	81209
#	99367
#	110314
#	125532
#	137280
#	150317
#	167568
#	179266
#	198955
#	213894
#	222860
#
# Disc length: 3144 seconds
#
# Revision: 0
# Processed by: cddbd v1.5.1PL2 Copyright (c) Steve Scherf et al.
# Submitted via: CDex 1.50
#
DISCID=cc0c4611
DTITLE=Errol Gray - Bugger Me Dead
DYEAR=2005
DGENRE=Country
TTITLE0=Thank God I'm Unemployed
TTITLE1=The Lawnmower Man
TTITLE2=Old Fart
TTITLE3=The Town With No TAB
TTITLE4=Jenny Craig
TTITLE5=Ducks Guts On Toast
TTITLE6=Barry The Bullshipper
TTITLE7=I Still Call The Commercial Home
TTITLE8=Number 97 To The Snack Bar Please
TTITLE9=Hair
TTITLE10=I'll Sing You A Song About Australia
TTITLE11=Talk To Your Chooks
TTITLE12=Leave Him In The Backyard
TTITLE13=The Roadie's Lament
TTITLE14=The Life Of A Politician
TTITLE15=The Car Song
TTITLE16=Backyard Blitz
EXTD=YEAR: 2005
EXTT0=
EXTT1=
EXTT2=
EXTT3=
EXTT4=
EXTT5=
EXTT6=
EXTT7=
EXTT8=
EXTT9=
EXTT10=
EXTT11=
EXTT12=
EXTT13=
EXTT14=
EXTT15=
EXTT16=
PLAYORDER=
